<svg class="svgTest" fill="rgba(40,40,40, 0.5)" viewBox="0 0 160 80" id="icon" xmlns="http://www.w3.org/2000/svg">
  <rect x="0" y="-40" width="160" height="80" />
  <line x1="0" y1="-40" x2="150" y2="-40" stroke-width=".1" stroke="#0F0000" />
  <line x1="0" y1="-35" x2="150" y2="-35" stroke-width=".1" stroke="#0F0000" />
  <line x1="0" y1="-30" x2="150" y2="-30" stroke-width=".1" stroke="#0F0000" />
  <line x1="0" y1="-25" x2="150" y2="-25" stroke-width=".1" stroke="#0F0000" />
  <line x1="0" y1="-20" x2="150" y2="-20" stroke-width=".1" stroke="#0F0000" />
  <line x1="0" y1="-15" x2="150" y2="-15" stroke-width=".1" stroke="#0F0000" />
  <line x1="0" y1="-10" x2="150" y2="-10" stroke-width=".1" stroke="#0F0000" />
  <line x1="0" y1= "-5" x2="150" y2= "-5" stroke-width=".1" stroke="#0F0000" />
  <line x1="0" y1= "0"  x2="150" y2= "0" stroke-width=".1"  stroke="#0F0000" />
  <line x1="0" y1= "5"  x2="150" y2= "5" stroke-width=".1"  stroke="#0F0000" />
  <line x1="0" y1= "10" x2="150" y2= "10" stroke-width=".1" stroke="#0F0000" />
  <line x1="0" y1= "15" x2="150" y2= "15" stroke-width=".1" stroke="#0F0000" />
  <line x1="0" y1= "20" x2="150" y2= "20" stroke-width=".1" stroke="#0F0000" />
  <line x1="0" y1= "25" x2="150" y2= "25" stroke-width=".1" stroke="#0F0000" />
  <line x1="0" y1= "30" x2="150" y2= "30" stroke-width=".1" stroke="#0F0000" />
  <line x1="0" y1= "35" x2="150" y2= "35" stroke-width=".1" stroke="#0F0000" />
<path d="M0 2.68L 4 -2.75 L 8 -2.81 L 12 -2.34 L 16 -3.25 L 20 -6.15 L 24 -4.8 L 28 -2.93 L 32 -2.55 L 36 -3.39 L 40 -3.86 L 44 -4.13 L 48 -4.6 L 52 -5.75 L 56 -5.52 L 60 -5.13 L 64 -4.11 L 68 -3.27 L 72 -2.83 L 76 -3.38 L 80 -4.57 L 84 -5.77 L 88 -6.54 L 92 -7.15 L 96 -7.08 L 100 -7.94 L 104 -7.98 L 108 -7.85 L 112 -8.63 L 116 -8.49 L 120 -8.27 L 124 -8.63 L 128 -8.84 L 132 -10.22 L 136 -11.57 L 140 -12.18 L 144 -12.07 L 148 -11.58 L 152 -11.53 L 156 -11.18 " stroke-width=".5" stroke="red" fill="none" /> </svg>

