<svg class="svgTest" fill="rgba(40,40,40, 0.5)" viewBox="0 0 160 60" id="icon" xmlns="http://www.w3.org/2000/svg">
 <rect x="0" y="-50" width="160" height="100" />
 <line x1="0" y1="-45" x2="150" y2="-45" stroke-width=".1" stroke="rgba(173, 255, 47, 0.5)" />
 <line x1="0" y1="-40" x2="150" y2="-40" stroke-width=".1" stroke="rgba(173, 255, 47, 0.5)" />
 <line x1="0" y1="-35" x2="150" y2="-35" stroke-width=".1" stroke="rgba(173, 255, 47, 0.5)" />
 <line x1="0" y1="-30" x2="150" y2="-30" stroke-width=".1" stroke="rgba(173, 255, 47, 0.5)" />
 <line x1="0" y1="-25" x2="150" y2="-25" stroke-width=".1" stroke="rgba(173, 255, 47, 0.5)" />
 <line x1="0" y1="-20" x2="150" y2="-20" stroke-width=".1" stroke="rgba(173, 255, 47, 0.5)" />
 <line x1="0" y1="-15" x2="150" y2="-15" stroke-width=".1" stroke="rgba(173, 255, 47, 0.5)" />
 <line x1="0" y1="-10" x2="150" y2="-10" stroke-width=".1" stroke="rgba(173, 255, 47, 0.5)" />
 <line x1="0" y1= "-5" x2="150" y2= "-5" stroke-width=".1" stroke="rgba(173, 255, 47, 0.5)" />
 <text x= "3" y="-41" font-size="5" fill="#FFFFF0">40°</text>
 <text x= "3" y="-31" font-size="5" fill="#FFFFF0">30°</text>
 <text x= "3" y="-21" font-size="5" fill="#FFFFF0">20°</text>
 <text x= "3" y="-11" font-size="5" fill="#FFFFF0">10°</text>
 <text x= "2" y="-1"  font-size="5" fill="#FFFFF0">0°</text>
 <text x= "2" y="11"  font-size="5" fill="#FFFFF0">-10°</text>
 <text x= "2" y="21"  font-size="5" fill="#FFFFF0">-20°</text>
 <text x= "2" y="31"  font-size="5" fill="#FFFFF0">-30°</text>
 <text x= "2" y="41"  font-size="5" fill="#FFFFF0">-40°</text>
 <line x1="0" y1= "0" x2="150" y2= "0" stroke-width=".3"   stroke="rgba(173, 255, 47, 0.5)" />
 <line x1="0" y1= "5" x2="150" y2= "5" stroke-width=".1"   stroke="rgba(173, 255, 47, 0.5)" />
 <line x1="0" y1= "10" x2="150" y2= "10" stroke-width=".1" stroke="rgba(173, 255, 47, 0.5)" />
 <line x1="0" y1= "15" x2="150" y2= "15" stroke-width=".1" stroke="rgba(173, 255, 47, 0.5)" />
 <line x1="0" y1= "20" x2="150" y2= "20" stroke-width=".1" stroke="rgba(173, 255, 47, 0.5)" />
 <line x1="0" y1= "25" x2="150" y2= "25" stroke-width=".1" stroke="rgba(173, 255, 47, 0.5)" />
 <line x1="0" y1= "30" x2="150" y2= "30" stroke-width=".1" stroke="rgba(173, 255, 47, 0.5)" />
 <line x1="0" y1= "35" x2="150" y2= "35" stroke-width=".1" stroke="rgba(173, 255, 47, 0.5)" />
 <line x1="0" y1= "40" x2="150" y2= "40" stroke-width=".1" stroke="rgba(173, 255, 47, 0.5)" />
 <line x1="0" y1= "45" x2="150" y2= "45" stroke-width=".1" stroke="rgba(173, 255, 47, 0.5)" />
<path d="M0 4.39L 4 -4.47 L 8 -4.52 L 12 -4.19 L 16 -5.13 L 20 -4.4 L 24 -2.61 L 28 -2.11 L 32 -2.29 L 36 -2.45 L 40 -2.38 L 44 -2.79 L 48 -5.05 L 52 -6.87 L 56 -5.61 L 60 -5.69 L 64 -5.81 L 68 -5 L 72 -3.88 L 76 -3.06 L 80 -4.12 L 84 -5.29 L 88 -3.72 L 92 -4 L 96 -4.39 L 100 -5.08 L 104 -4.04 L 108 -3.75 L 112 -4.81 L 116 -6.05 L 120 -5.13 L 124 -4.13 L 128 -4.71 L 132 -4.65 L 136 -4.62 L 140 -3.83 L 144 -4.86 L 148 -6.17 L 152 -4.16 L 156 -5.05 " stroke-width=".5" stroke="red" fill="none" />
 </svg>

