<svg class="svgTest" fill="rgba(40,40,40, 0.5)" viewBox="0 -34 160 60" id="icon" xmlns="http://www.w3.org/2000/svg"> <rect x="0" y="-50" width="160" height="100" /> <line x1="0" y1="-45" x2="150" y2="-45" stroke-width=".1" stroke="rgba(173, 255, 47, 0.5)" /> <line x1="0" y1="-40" x2="150" y2="-40" stroke-width=".1" stroke="rgba(173, 255, 47, 0.5)" /> <line x1="0" y1="-35" x2="150" y2="-35" stroke-width=".1" stroke="rgba(173, 255, 47, 0.5)" /> <line x1="0" y1="-30" x2="150" y2="-30" stroke-width=".1" stroke="rgba(173, 255, 47, 0.5)" /> <line x1="0" y1="-25" x2="150" y2="-25" stroke-width=".1" stroke="rgba(173, 255, 47, 0.5)" /> <line x1="0" y1="-20" x2="150" y2="-20" stroke-width=".1" stroke="rgba(173, 255, 47, 0.5)" /> <line x1="0" y1="-15" x2="150" y2="-15" stroke-width=".1" stroke="rgba(173, 255, 47, 0.5)" /> <line x1="0" y1="-10" x2="150" y2="-10" stroke-width=".1" stroke="rgba(173, 255, 47, 0.5)" /> <line x1="0" y1= "-5" x2="150" y2= "-5" stroke-width=".1" stroke="rgba(173, 255, 47, 0.5)" /> <text x= "3" y="-41" font-size="5" fill="#FFFFF0">40°</text> <text x= "3" y="-31" font-size="5" fill="#FFFFF0">30°</text> <text x= "3" y="-21" font-size="5" fill="#FFFFF0">20°</text> <text x= "3" y="-11" font-size="5" fill="#FFFFF0">10°</text> <text x= "2" y="-1" font-size="5" fill="#FFFFF0">0°</text> <text x= "2" y="11" font-size="5" fill="#FFFFF0">-10°</text> <text x= "2" y="21" font-size="5" fill="#FFFFF0">-20°</text> <text x= "2" y="31" font-size="5" fill="#FFFFF0">-30°</text> <text x= "2" y="41" font-size="5" fill="#FFFFF0">-40°</text> <line x1="0" y1= "0" x2="150" y2= "0" stroke-width=".3" stroke="rgba(173, 255, 47, 0.5)" /> <line x1="0" y1= "5" x2="150" y2= "5" stroke-width=".1" stroke="rgba(173, 255, 47, 0.5)" /> <line x1="0" y1= "10" x2="150" y2= "10" stroke-width=".1" stroke="rgba(173, 255, 47, 0.5)" /> <line x1="0" y1= "15" x2="150" y2= "15" stroke-width=".1" stroke="rgba(173, 255, 47, 0.5)" /> <line x1="0" y1= "20" x2="150" y2= "20" stroke-width=".1" stroke="rgba(173, 255, 47, 0.5)" /> <line x1="0" y1= "25" x2="150" y2= "25" stroke-width=".1" stroke="rgba(173, 255, 47, 0.5)" /> <line x1="0" y1= "30" x2="150" y2= "30" stroke-width=".1" stroke="rgba(173, 255, 47, 0.5)" /> <line x1="0" y1= "35" x2="150" y2= "35" stroke-width=".1" stroke="rgba(173, 255, 47, 0.5)" /> <line x1="0" y1= "40" x2="150" y2= "40" stroke-width=".1" stroke="rgba(173, 255, 47, 0.5)" /> <line x1="0" y1= "45" x2="150" y2= "45" stroke-width=".1" stroke="rgba(173, 255, 47, 0.5)" /> <path d="M0 -6.96L 4 -5.32 L 8 -3.82 L 12 -3.23 L 16 -2.44 L 20 -4.34 L 24 -7.83 L 28 -8.65 L 32 -7.06 L 36 -8.38 L 40 -9.48 L 44 -9.63 L 48 -9.47 L 52 -9.91 L 56 -10.34 L 60 -10.97 L 64 -10.34 L 68 -10.05 L 72 -8.63 L 76 -8.2 L 80 -8.02 L 84 -9.75 L 88 -10.87 L 92 -12.53 L 96 -12.57 L 100 -11.9 L 104 -10.6 L 108 -9.35 L 112 -9.48 L 116 -9.64 L 120 -11.53 L 124 -12.19 L 128 -12 L 132 -12.08 L 136 -11.9 L 140 -11.6 L 144 -10.86 L 148 -10.81 L 152 -11.75 L 156 -11.7 " stroke-width=".5" stroke="red" fill="none" /> </svg>
