<svg class="svgTest" fill="rgba(40,40,40, 0.5)" width="420" height="160" viewBox="0 -32 160 60" id="icon" xmlns="http://www.w3.org/2000/svg"> <rect x="0" y="-50" width="160" height="100" /> <line x1="0" y1="-45" x2="150" y2="-45" stroke-width=".1" stroke="rgba(173, 255, 47, 0.5)" /> <line x1="0" y1="-40" x2="150" y2="-40" stroke-width=".1" stroke="rgba(173, 255, 47, 0.5)" /> <line x1="0" y1="-35" x2="150" y2="-35" stroke-width=".1" stroke="rgba(173, 255, 47, 0.5)" /> <line x1="0" y1="-30" x2="150" y2="-30" stroke-width=".1" stroke="rgba(173, 255, 47, 0.5)" /> <line x1="0" y1="-25" x2="150" y2="-25" stroke-width=".1" stroke="rgba(173, 255, 47, 0.5)" /> <line x1="0" y1="-20" x2="150" y2="-20" stroke-width=".1" stroke="rgba(173, 255, 47, 0.5)" /> <line x1="0" y1="-15" x2="150" y2="-15" stroke-width=".1" stroke="rgba(173, 255, 47, 0.5)" /> <line x1="0" y1="-10" x2="150" y2="-10" stroke-width=".1" stroke="rgba(173, 255, 47, 0.5)" /> <line x1="0" y1= "-5" x2="150" y2= "-5" stroke-width=".1" stroke="rgba(173, 255, 47, 0.5)" /> <text x= "3" y="-41" font-size="5" fill="#FFFFF0">40°</text> <text x= "3" y="-31" font-size="5" fill="#FFFFF0">30°</text> <text x= "3" y="-21" font-size="5" fill="#FFFFF0">20°</text> <text x= "3" y="-11" font-size="5" fill="#FFFFF0">10°</text> <text x= "2" y="-1" font-size="5" fill="#FFFFF0">0°</text> <text x= "2" y="11" font-size="5" fill="#FFFFF0">-10°</text> <text x= "2" y="21" font-size="5" fill="#FFFFF0">-20°</text> <text x= "2" y="31" font-size="5" fill="#FFFFF0">-30°</text> <text x= "2" y="41" font-size="5" fill="#FFFFF0">-40°</text> <line x1="0" y1= "0" x2="150" y2= "0" stroke-width=".3" stroke="rgba(173, 255, 47, 0.5)" /> <line x1="0" y1= "5" x2="150" y2= "5" stroke-width=".1" stroke="rgba(173, 255, 47, 0.5)" /> <line x1="0" y1= "10" x2="150" y2= "10" stroke-width=".1" stroke="rgba(173, 255, 47, 0.5)" /> <line x1="0" y1= "15" x2="150" y2= "15" stroke-width=".1" stroke="rgba(173, 255, 47, 0.5)" /> <line x1="0" y1= "20" x2="150" y2= "20" stroke-width=".1" stroke="rgba(173, 255, 47, 0.5)" /> <line x1="0" y1= "25" x2="150" y2= "25" stroke-width=".1" stroke="rgba(173, 255, 47, 0.5)" /> <line x1="0" y1= "30" x2="150" y2= "30" stroke-width=".1" stroke="rgba(173, 255, 47, 0.5)" /> <line x1="0" y1= "35" x2="150" y2= "35" stroke-width=".1" stroke="rgba(173, 255, 47, 0.5)" /> <line x1="0" y1= "40" x2="150" y2= "40" stroke-width=".1" stroke="rgba(173, 255, 47, 0.5)" /> <line x1="0" y1= "45" x2="150" y2= "45" stroke-width=".1" stroke="rgba(173, 255, 47, 0.5)" /> <path d="M0 -3.56L 4 -3.76 L 8 -3.43 L 12 -5.06 L 16 -5.9 L 20 -3.27 L 24 -2.57 L 28 -2.15 L 32 -1.95 L 36 -1.62 L 40 -1.44 L 44 -3.22 L 48 -4.47 L 52 -3.12 L 56 -2.65 L 60 -2.33 L 64 -2.03 L 68 -2.39 L 72 -2.69 L 76 -3.72 L 80 -5.54 L 84 -3.46 L 88 -2.45 L 92 -1.8 L 96 -1.08 L 100 -1.31 L 104 -1.58 L 108 -3.75 L 112 -4.98 L 116 -2.77 L 120 -2.21 L 124 -1.71 L 128 -1.28 L 132 -.91 L 136 -.67 L 140 -2.58 L 144 -4.24 L 148 -1.88 L 152 -1.17 L 156 -1.09 " stroke-width=".5" stroke="red" fill="none" /> <circle cx="4" cy="-3.76" r="0.5" fill="red" /><text x="4" y="-3.76" font-size="2" fill="white"> 03:00</text><circle cx="8" cy="-3.43" r="0.5" fill="red" /><text x="8" y="-3.43" font-size="2" fill="white"> 06:00</text><circle cx="16" cy="-5.9" r="0.5" fill="red" /><text x="16" y="-5.9" font-size="2" fill="white"> 12:00</text><circle cx="20" cy="-3.27" r="0.5" fill="red" /><text x="20" y="-3.27" font-size="2" fill="white"> 15:00</text><circle cx="28" cy="-2.15" r="0.5" fill="red" /><text x="28" y="-2.15" font-size="2" fill="white"> 21:00</text><circle cx="32" cy="-1.95" r="0.5" fill="red" /><text x="32" y="-1.95" font-size="2" fill="white"> 00:00</text><circle cx="40" cy="-1.44" r="0.5" fill="red" /><text x="40" y="-1.44" font-size="2" fill="white"> 06:00</text><circle cx="44" cy="-3.22" r="0.5" fill="red" /><text x="44" y="-3.22" font-size="2" fill="white"> 09:00</text><circle cx="52" cy="-3.12" r="0.5" fill="red" /><text x="52" y="-3.12" font-size="2" fill="white"> 15:00</text><circle cx="56" cy="-2.65" r="0.5" fill="red" /><text x="56" y="-2.65" font-size="2" fill="white"> 18:00</text><circle cx="64" cy="-2.03" r="0.5" fill="red" /><text x="64" y="-2.03" font-size="2" fill="white"> 00:00</text><circle cx="68" cy="-2.39" r="0.5" fill="red" /><text x="68" y="-2.39" font-size="2" fill="white"> 03:00</text><circle cx="76" cy="-3.72" r="0.5" fill="red" /><text x="76" y="-3.72" font-size="2" fill="white"> 09:00</text><circle cx="80" cy="-5.54" r="0.5" fill="red" /><text x="80" y="-5.54" font-size="2" fill="white"> 12:00</text><circle cx="88" cy="-2.45" r="0.5" fill="red" /><text x="88" y="-2.45" font-size="2" fill="white"> 18:00</text><circle cx="92" cy="-1.8" r="0.5" fill="red" /><text x="92" y="-1.8" font-size="2" fill="white"> 21:00</text><circle cx="100" cy="-1.31" r="0.5" fill="red" /><text x="100" y="-1.31" font-size="2" fill="white"> 03:00</text><circle cx="104" cy="-1.58" r="0.5" fill="red" /><text x="104" y="-1.58" font-size="2" fill="white"> 06:00</text><circle cx="112" cy="-4.98" r="0.5" fill="red" /><text x="112" y="-4.98" font-size="2" fill="white"> 12:00</text><circle cx="116" cy="-2.77" r="0.5" fill="red" /><text x="116" y="-2.77" font-size="2" fill="white"> 15:00</text><circle cx="124" cy="-1.71" r="0.5" fill="red" /><text x="124" y="-1.71" font-size="2" fill="white"> 21:00</text><circle cx="128" cy="-1.28" r="0.5" fill="red" /><text x="128" y="-1.28" font-size="2" fill="white"> 00:00</text><circle cx="136" cy="-.67" r="0.5" fill="red" /><text x="136" y="-.67" font-size="2" fill="white"> 06:00</text><circle cx="140" cy="-2.58" r="0.5" fill="red" /><text x="140" y="-2.58" font-size="2" fill="white"> 09:00</text><circle cx="148" cy="-1.88" r="0.5" fill="red" /><text x="148" y="-1.88" font-size="2" fill="white"> 15:00</text><circle cx="152" cy="-1.17" r="0.5" fill="red" /><text x="152" y="-1.17" font-size="2" fill="white"> 18:00</text><line x1="0" y1= "-60" x2="0" y2= "60" stroke-width=".1" stroke="rgba(173, 255, 47, 0.5)" /><text id="day" x="-3" y="20" font-size="3" fill="white"> 15-12</text><line x1="32" y1= "-60" x2="32" y2= "60" stroke-width=".1" stroke="rgba(173, 255, 47, 0.5)" /><text id="day" x="29" y="15" font-size="3" fill="white"> 16-12</text><line x1="64" y1= "-60" x2="64" y2= "60" stroke-width=".1" stroke="rgba(173, 255, 47, 0.5)" /><text id="day" x="61" y="15" font-size="3" fill="white"> 17-12</text><line x1="96" y1= "-60" x2="96" y2= "60" stroke-width=".1" stroke="rgba(173, 255, 47, 0.5)" /><text id="day" x="93" y="15" font-size="3" fill="white"> 18-12</text><line x1="128" y1= "-60" x2="128" y2= "60" stroke-width=".1" stroke="rgba(173, 255, 47, 0.5)" /><text id="day" x="125" y="15" font-size="3" fill="white"> 19-12</text></svg>
