<svg class="svgTest" fill="rgba(40,40,40, 0.5)" viewBox="0 -27 160 60" id="icon" xmlns="http://www.w3.org/2000/svg"> <rect x="0" y="-50" width="160" height="100" /> <line x1="0" y1="-45" x2="150" y2="-45" stroke-width=".1" stroke="rgba(173, 255, 47, 0.5)" /> <line x1="0" y1="-40" x2="150" y2="-40" stroke-width=".1" stroke="rgba(173, 255, 47, 0.5)" /> <line x1="0" y1="-35" x2="150" y2="-35" stroke-width=".1" stroke="rgba(173, 255, 47, 0.5)" /> <line x1="0" y1="-30" x2="150" y2="-30" stroke-width=".1" stroke="rgba(173, 255, 47, 0.5)" /> <line x1="0" y1="-25" x2="150" y2="-25" stroke-width=".1" stroke="rgba(173, 255, 47, 0.5)" /> <line x1="0" y1="-20" x2="150" y2="-20" stroke-width=".1" stroke="rgba(173, 255, 47, 0.5)" /> <line x1="0" y1="-15" x2="150" y2="-15" stroke-width=".1" stroke="rgba(173, 255, 47, 0.5)" /> <line x1="0" y1="-10" x2="150" y2="-10" stroke-width=".1" stroke="rgba(173, 255, 47, 0.5)" /> <line x1="0" y1= "-5" x2="150" y2= "-5" stroke-width=".1" stroke="rgba(173, 255, 47, 0.5)" /> <text x= "3" y="-41" font-size="5" fill="#FFFFF0">40°</text> <text x= "3" y="-31" font-size="5" fill="#FFFFF0">30°</text> <text x= "3" y="-21" font-size="5" fill="#FFFFF0">20°</text> <text x= "3" y="-11" font-size="5" fill="#FFFFF0">10°</text> <text x= "2" y="-1" font-size="5" fill="#FFFFF0">0°</text> <text x= "2" y="11" font-size="5" fill="#FFFFF0">-10°</text> <text x= "2" y="21" font-size="5" fill="#FFFFF0">-20°</text> <text x= "2" y="31" font-size="5" fill="#FFFFF0">-30°</text> <text x= "2" y="41" font-size="5" fill="#FFFFF0">-40°</text> <line x1="0" y1= "0" x2="150" y2= "0" stroke-width=".3" stroke="rgba(173, 255, 47, 0.5)" /> <line x1="0" y1= "5" x2="150" y2= "5" stroke-width=".1" stroke="rgba(173, 255, 47, 0.5)" /> <line x1="0" y1= "10" x2="150" y2= "10" stroke-width=".1" stroke="rgba(173, 255, 47, 0.5)" /> <line x1="0" y1= "15" x2="150" y2= "15" stroke-width=".1" stroke="rgba(173, 255, 47, 0.5)" /> <line x1="0" y1= "20" x2="150" y2= "20" stroke-width=".1" stroke="rgba(173, 255, 47, 0.5)" /> <line x1="0" y1= "25" x2="150" y2= "25" stroke-width=".1" stroke="rgba(173, 255, 47, 0.5)" /> <line x1="0" y1= "30" x2="150" y2= "30" stroke-width=".1" stroke="rgba(173, 255, 47, 0.5)" /> <line x1="0" y1= "35" x2="150" y2= "35" stroke-width=".1" stroke="rgba(173, 255, 47, 0.5)" /> <line x1="0" y1= "40" x2="150" y2= "40" stroke-width=".1" stroke="rgba(173, 255, 47, 0.5)" /> <line x1="0" y1= "45" x2="150" y2= "45" stroke-width=".1" stroke="rgba(173, 255, 47, 0.5)" /> <path d="M0 -4.57L 4 -4.58 L 8 -4.26 L 12 -4.72 L 16 -6.1 L 20 -5.32 L 24 -7.2 L 28 -6.84 L 32 -5.89 L 36 -5.17 L 40 -4.9 L 44 -5.36 L 48 -4.77 L 52 -5.14 L 56 -5.79 L 60 -4.61 L 64 -4.03 L 68 -4.6 L 72 -4.56 L 76 -4.66 L 80 -4.07 L 84 -5.29 L 88 -6.66 L 92 -4.99 L 96 -4.7 L 100 -4.33 L 104 -3.84 L 108 -3.14 L 112 -4.11 L 116 -5.6 L 120 -7.03 L 124 -6.96 L 128 -6.96 L 132 -7.37 L 136 -8.25 L 140 -8.49 L 144 -8.65 L 148 -8.85 L 152 -8.91 L 156 -7.03 " stroke-width=".5" stroke="red" fill="none" /> </svg>
