<svg class="svgTest" fill="rgba(40,40,40, 0.7)" viewBox="0 -27 160 60" id="icon" xmlns="http://www.w3.org/2000/svg"> <rect x="0" y="-50" width="160" height="100" /> <line x1="0" y1="-45" x2="150" y2="-45" stroke-width=".1" stroke="rgba(173, 255, 47, 0.5)" /> <line x1="0" y1="-40" x2="150" y2="-40" stroke-width=".1" stroke="rgba(173, 255, 47, 0.5)" /> <line x1="0" y1="-35" x2="150" y2="-35" stroke-width=".1" stroke="rgba(173, 255, 47, 0.5)" /> <line x1="0" y1="-30" x2="150" y2="-30" stroke-width=".1" stroke="rgba(173, 255, 47, 0.5)" /> <line x1="0" y1="-25" x2="150" y2="-25" stroke-width=".1" stroke="rgba(173, 255, 47, 0.5)" /> <line x1="0" y1="-20" x2="150" y2="-20" stroke-width=".1" stroke="rgba(173, 255, 47, 0.5)" /> <line x1="0" y1="-15" x2="150" y2="-15" stroke-width=".1" stroke="rgba(173, 255, 47, 0.5)" /> <line x1="0" y1="-10" x2="150" y2="-10" stroke-width=".1" stroke="rgba(173, 255, 47, 0.5)" /> <line x1="0" y1= "-5" x2="150" y2= "-5" stroke-width=".1" stroke="rgba(173, 255, 47, 0.5)" /> <text x= "3" y="-41" font-size="5" fill="#FFFFF0">40°</text> <text x= "3" y="-31" font-size="5" fill="#FFFFF0">30°</text> <text x= "3" y="-21" font-size="5" fill="#FFFFF0">20°</text> <text x= "3" y="-11" font-size="5" fill="#FFFFF0">10°</text> <text x= "2" y="-1" font-size="5" fill="#FFFFF0">0°</text> <text x= "2" y="11" font-size="5" fill="#FFFFF0">-10°</text> <text x= "2" y="21" font-size="5" fill="#FFFFF0">-20°</text> <text x= "2" y="31" font-size="5" fill="#FFFFF0">-30°</text> <text x= "2" y="41" font-size="5" fill="#FFFFF0">-40°</text> <line x1="0" y1= "0" x2="150" y2= "0" stroke-width=".3" stroke="rgba(173, 255, 47, 0.5)" /> <line x1="0" y1= "5" x2="150" y2= "5" stroke-width=".1" stroke="rgba(173, 255, 47, 0.5)" /> <line x1="0" y1= "10" x2="150" y2= "10" stroke-width=".1" stroke="rgba(173, 255, 47, 0.5)" /> <line x1="0" y1= "15" x2="150" y2= "15" stroke-width=".1" stroke="rgba(173, 255, 47, 0.5)" /> <line x1="0" y1= "20" x2="150" y2= "20" stroke-width=".1" stroke="rgba(173, 255, 47, 0.5)" /> <line x1="0" y1= "25" x2="150" y2= "25" stroke-width=".1" stroke="rgba(173, 255, 47, 0.5)" /> <line x1="0" y1= "30" x2="150" y2= "30" stroke-width=".1" stroke="rgba(173, 255, 47, 0.5)" /> <line x1="0" y1= "35" x2="150" y2= "35" stroke-width=".1" stroke="rgba(173, 255, 47, 0.5)" /> <line x1="0" y1= "40" x2="150" y2= "40" stroke-width=".1" stroke="rgba(173, 255, 47, 0.5)" /> <line x1="0" y1= "45" x2="150" y2= "45" stroke-width=".1" stroke="rgba(173, 255, 47, 0.5)" /> <path d="M0 -5.58L 4 -3.2 L 8 .21 L 12 4.31 L 16 4.13 L 20 3.37 L 24 1.75 L 28 .66 L 32 .17 L 36 .06 L 40 .47 L 44 .46 L 48 .19 L 52 -.44 L 56 -2.04 L 60 -4.06 L 64 -4.75 L 68 -3.77 L 72 -3.32 L 76 -2.75 L 80 -2.07 L 84 -1.39 L 88 -3 L 92 -4.52 L 96 -4.61 L 100 -4.36 L 104 -4.24 L 108 -2.39 L 112 -2.29 L 116 -2.78 L 120 1.04 L 124 1.49 L 128 2.6 L 132 3.97 L 136 4.66 L 140 4.95 L 144 4.88 L 148 4.65 L 152 2.88 L 156 .3 " stroke-width=".5" stroke="red" fill="none" /> </svg>
