<svg class="svgTest" fill="rgba(40,40,40, 0.5)" width="420" height="160" viewBox="0 -32 160 60" id="icon" xmlns="http://www.w3.org/2000/svg"> <rect x="0" y="-50" width="160" height="100" /> <line x1="0" y1="-45" x2="150" y2="-45" stroke-width=".1" stroke="rgba(173, 255, 47, 0.5)" /> <line x1="0" y1="-40" x2="150" y2="-40" stroke-width=".1" stroke="rgba(173, 255, 47, 0.5)" /> <line x1="0" y1="-35" x2="150" y2="-35" stroke-width=".1" stroke="rgba(173, 255, 47, 0.5)" /> <line x1="0" y1="-30" x2="150" y2="-30" stroke-width=".1" stroke="rgba(173, 255, 47, 0.5)" /> <line x1="0" y1="-25" x2="150" y2="-25" stroke-width=".1" stroke="rgba(173, 255, 47, 0.5)" /> <line x1="0" y1="-20" x2="150" y2="-20" stroke-width=".1" stroke="rgba(173, 255, 47, 0.5)" /> <line x1="0" y1="-15" x2="150" y2="-15" stroke-width=".1" stroke="rgba(173, 255, 47, 0.5)" /> <line x1="0" y1="-10" x2="150" y2="-10" stroke-width=".1" stroke="rgba(173, 255, 47, 0.5)" /> <line x1="0" y1= "-5" x2="150" y2= "-5" stroke-width=".1" stroke="rgba(173, 255, 47, 0.5)" /> <text x= "3" y="-41" font-size="5" fill="#FFFFF0">40°</text> <text x= "3" y="-31" font-size="5" fill="#FFFFF0">30°</text> <text x= "3" y="-21" font-size="5" fill="#FFFFF0">20°</text> <text x= "3" y="-11" font-size="5" fill="#FFFFF0">10°</text> <text x= "2" y="-1" font-size="5" fill="#FFFFF0">0°</text> <text x= "2" y="11" font-size="5" fill="#FFFFF0">-10°</text> <text x= "2" y="21" font-size="5" fill="#FFFFF0">-20°</text> <text x= "2" y="31" font-size="5" fill="#FFFFF0">-30°</text> <text x= "2" y="41" font-size="5" fill="#FFFFF0">-40°</text> <line x1="0" y1= "0" x2="150" y2= "0" stroke-width=".3" stroke="rgba(173, 255, 47, 0.5)" /> <line x1="0" y1= "5" x2="150" y2= "5" stroke-width=".1" stroke="rgba(173, 255, 47, 0.5)" /> <line x1="0" y1= "10" x2="150" y2= "10" stroke-width=".1" stroke="rgba(173, 255, 47, 0.5)" /> <line x1="0" y1= "15" x2="150" y2= "15" stroke-width=".1" stroke="rgba(173, 255, 47, 0.5)" /> <line x1="0" y1= "20" x2="150" y2= "20" stroke-width=".1" stroke="rgba(173, 255, 47, 0.5)" /> <line x1="0" y1= "25" x2="150" y2= "25" stroke-width=".1" stroke="rgba(173, 255, 47, 0.5)" /> <line x1="0" y1= "30" x2="150" y2= "30" stroke-width=".1" stroke="rgba(173, 255, 47, 0.5)" /> <line x1="0" y1= "35" x2="150" y2= "35" stroke-width=".1" stroke="rgba(173, 255, 47, 0.5)" /> <line x1="0" y1= "40" x2="150" y2= "40" stroke-width=".1" stroke="rgba(173, 255, 47, 0.5)" /> <line x1="0" y1= "45" x2="150" y2= "45" stroke-width=".1" stroke="rgba(173, 255, 47, 0.5)" /> <path d="M0 -4.1L 4 -4.12 L 8 -3.95 L 12 -4.35 L 16 -3.09 L 20 -3.97 L 24 -5.73 L 28 -3.59 L 32 -2.84 L 36 -2.47 L 40 -2.18 L 44 -1.89 L 48 -1.38 L 52 -3.37 L 56 -4.66 L 60 -3.28 L 64 -3.04 L 68 -2.79 L 72 -2.22 L 76 -2.2 L 80 -2.77 L 84 -4.53 L 88 -5.36 L 92 -3.43 L 96 -1.97 L 100 -1.33 L 104 -1.52 L 108 -1.68 L 112 -1.81 L 116 -3.72 L 120 -5.11 L 124 -3.29 L 128 -2.62 L 132 -1.89 L 136 -1.29 L 140 -1.03 L 144 -.81 L 148 -2.87 L 152 -4.59 L 156 -2.37 " stroke-width=".5" stroke="red" fill="none" /> <circle cx="4" cy="-4.12" r="0.5" fill="red" /><text x="4" y="-4.12" font-size="2" fill="white"> 21:00</text><circle cx="8" cy="-3.95" r="0.5" fill="red" /><text x="8" y="-3.95" font-size="2" fill="white"> 00:00</text><circle cx="16" cy="-3.09" r="0.5" fill="red" /><text x="16" y="-3.09" font-size="2" fill="white"> 06:00</text><circle cx="20" cy="-3.97" r="0.5" fill="red" /><text x="20" y="-3.97" font-size="2" fill="white"> 09:00</text><circle cx="28" cy="-3.59" r="0.5" fill="red" /><text x="28" y="-3.59" font-size="2" fill="white"> 15:00</text><circle cx="32" cy="-2.84" r="0.5" fill="red" /><text x="32" y="-2.84" font-size="2" fill="white"> 18:00</text><circle cx="40" cy="-2.18" r="0.5" fill="red" /><text x="40" y="-2.18" font-size="2" fill="white"> 00:00</text><circle cx="44" cy="-1.89" r="0.5" fill="red" /><text x="44" y="-1.89" font-size="2" fill="white"> 03:00</text><circle cx="52" cy="-3.37" r="0.5" fill="red" /><text x="52" y="-3.37" font-size="2" fill="white"> 09:00</text><circle cx="56" cy="-4.66" r="0.5" fill="red" /><text x="56" y="-4.66" font-size="2" fill="white"> 12:00</text><circle cx="64" cy="-3.04" r="0.5" fill="red" /><text x="64" y="-3.04" font-size="2" fill="white"> 18:00</text><circle cx="68" cy="-2.79" r="0.5" fill="red" /><text x="68" y="-2.79" font-size="2" fill="white"> 21:00</text><circle cx="76" cy="-2.2" r="0.5" fill="red" /><text x="76" y="-2.2" font-size="2" fill="white"> 03:00</text><circle cx="80" cy="-2.77" r="0.5" fill="red" /><text x="80" y="-2.77" font-size="2" fill="white"> 06:00</text><circle cx="88" cy="-5.36" r="0.5" fill="red" /><text x="88" y="-5.36" font-size="2" fill="white"> 12:00</text><circle cx="92" cy="-3.43" r="0.5" fill="red" /><text x="92" y="-3.43" font-size="2" fill="white"> 15:00</text><circle cx="100" cy="-1.33" r="0.5" fill="red" /><text x="100" y="-1.33" font-size="2" fill="white"> 21:00</text><circle cx="104" cy="-1.52" r="0.5" fill="red" /><text x="104" y="-1.52" font-size="2" fill="white"> 00:00</text><circle cx="112" cy="-1.81" r="0.5" fill="red" /><text x="112" y="-1.81" font-size="2" fill="white"> 06:00</text><circle cx="116" cy="-3.72" r="0.5" fill="red" /><text x="116" y="-3.72" font-size="2" fill="white"> 09:00</text><circle cx="124" cy="-3.29" r="0.5" fill="red" /><text x="124" y="-3.29" font-size="2" fill="white"> 15:00</text><circle cx="128" cy="-2.62" r="0.5" fill="red" /><text x="128" y="-2.62" font-size="2" fill="white"> 18:00</text><circle cx="136" cy="-1.29" r="0.5" fill="red" /><text x="136" y="-1.29" font-size="2" fill="white"> 00:00</text><circle cx="140" cy="-1.03" r="0.5" fill="red" /><text x="140" y="-1.03" font-size="2" fill="white"> 03:00</text><circle cx="148" cy="-2.87" r="0.5" fill="red" /><text x="148" y="-2.87" font-size="2" fill="white"> 09:00</text><circle cx="152" cy="-4.59" r="0.5" fill="red" /><text x="152" y="-4.59" font-size="2" fill="white"> 12:00</text><line x1="8" y1= "-60" x2="8" y2= "60" stroke-width=".1" stroke="rgba(173, 255, 47, 0.5)" /><text id="day" x="5" y="15" font-size="3" fill="white"> 15-12</text><line x1="40" y1= "-60" x2="40" y2= "60" stroke-width=".1" stroke="rgba(173, 255, 47, 0.5)" /><text id="day" x="37" y="15" font-size="3" fill="white"> 16-12</text><line x1="72" y1= "-60" x2="72" y2= "60" stroke-width=".1" stroke="rgba(173, 255, 47, 0.5)" /><text id="day" x="69" y="15" font-size="3" fill="white"> 17-12</text><line x1="104" y1= "-60" x2="104" y2= "60" stroke-width=".1" stroke="rgba(173, 255, 47, 0.5)" /><text id="day" x="101" y="15" font-size="3" fill="white"> 18-12</text><line x1="136" y1= "-60" x2="136" y2= "60" stroke-width=".1" stroke="rgba(173, 255, 47, 0.5)" /><text id="day" x="133" y="15" font-size="3" fill="white"> 19-12</text></svg>
